# xmcd
#
# Track frame offsets:
#	150
#	16505
#	30480
#	49670
#	70955
#	86395
#	101560
#	133485
#	153260
#	173075
#	187895
#	202975
#	216475
#	236880
#	256935
#
# Disc length: 3932 seconds
#
# Revision: 1
# Processed by: cddbd v1.4PL0 Copyright (c) Steve Scherf et al.
# Submitted via: audiograbber 1.80.04
#
DISCID=c50f5a0f
DTITLE=KK& Magnús - Lifað Og Lekið
DYEAR=2000
DGENRE=Pop
TTITLE0=Beint Í Belginn
TTITLE1=Ef Þú Ert Mér Hjá
TTITLE2=Lucky One
TTITLE3=Blús Í G
TTITLE4=Vegbúí (Stolið)
TTITLE5=Apótek
TTITLE6=Think Of Angels
TTITLE7=Vindur
TTITLE8=Jésús Kristur Og Ég
TTITLE9=True To You
TTITLE10=Braggablús
TTITLE11=Bein Leið
TTITLE12=Grand Hótel
TTITLE13=Óbyggðirnar Kalla
TTITLE14=Everyday I Have The Blues
EXTD=
EXTT0=
EXTT1=
EXTT2=
EXTT3=
EXTT4=
EXTT5=
EXTT6=
EXTT7=
EXTT8=
EXTT9=
EXTT10=
EXTT11=
EXTT12=
EXTT13=
EXTT14=
PLAYORDER=
